<mxfile host="app.diagrams.net" modified="2023-08-03T04:03:39.248Z" agent="Mozilla/5.0 (Windows NT 10.0; Win64; x64) AppleWebKit/537.36 (KHTML, like Gecko) Chrome/115.0.0.0 Safari/537.36" etag="dFtl15-MTCuo5uJL2SU0" version="21.6.5" type="device">
  <diagram name="Page-1" id="BWHNkNiEs-IkO5fIKNXb">
    <mxGraphModel dx="1290" dy="605" grid="1" gridSize="10" guides="1" tooltips="1" connect="1" arrows="1" fold="1" page="1" pageScale="1" pageWidth="850" pageHeight="1100" math="0" shadow="0">
      <root>
        <mxCell id="0" />
        <mxCell id="1" parent="0" />
        <mxCell id="UckIdEW40wDfMgWGuQWz-9" value="" style="edgeStyle=orthogonalEdgeStyle;rounded=0;orthogonalLoop=1;jettySize=auto;html=1;" edge="1" parent="1" source="5qmP-6OTH-ESlq7DOyJe-1" target="NqOy1r5sEnn0rG29aLDs-30">
          <mxGeometry relative="1" as="geometry" />
        </mxCell>
        <mxCell id="5qmP-6OTH-ESlq7DOyJe-1" value="START" style="rounded=1;whiteSpace=wrap;html=1;" parent="1" vertex="1">
          <mxGeometry x="247.5" y="40" width="120" height="60" as="geometry" />
        </mxCell>
        <mxCell id="5qmP-6OTH-ESlq7DOyJe-2" value="STOP" style="rounded=1;whiteSpace=wrap;html=1;" parent="1" vertex="1">
          <mxGeometry x="520" y="700" width="120" height="60" as="geometry" />
        </mxCell>
        <mxCell id="5qmP-6OTH-ESlq7DOyJe-3" value="&lt;div&gt;מנהל ביה&quot;ס &quot;חץ&quot; החליט שלא יופיעו בתעודות הציונים המספריים ,&lt;/div&gt;&lt;div&gt;&lt;br&gt;&lt;/div&gt;" style="text;html=1;strokeColor=none;fillColor=none;align=center;verticalAlign=middle;whiteSpace=wrap;rounded=0;" parent="1" vertex="1">
          <mxGeometry x="450" y="50" width="215" height="60" as="geometry" />
        </mxCell>
        <mxCell id="5qmP-6OTH-ESlq7DOyJe-23" style="edgeStyle=orthogonalEdgeStyle;rounded=0;orthogonalLoop=1;jettySize=auto;html=1;" parent="1" source="5qmP-6OTH-ESlq7DOyJe-22" target="5qmP-6OTH-ESlq7DOyJe-2" edge="1">
          <mxGeometry relative="1" as="geometry" />
        </mxCell>
        <mxCell id="5qmP-6OTH-ESlq7DOyJe-22" value="&lt;div style=&quot;color: rgb(204, 204, 204); background-color: rgb(31, 31, 31); font-family: Consolas, &amp;quot;Courier New&amp;quot;, monospace; font-size: 14px; line-height: 19px;&quot;&gt;&lt;div style=&quot;line-height: 19px;&quot;&gt;&lt;div style=&quot;line-height: 19px;&quot;&gt;&lt;div style=&quot;line-height: 19px;&quot;&gt;&lt;div style=&quot;line-height: 19px;&quot;&gt;פחות מ - 55 BAD&lt;/div&gt;&lt;div style=&quot;line-height: 19px;&quot;&gt;55 עד 64 PRETTY BAD&lt;/div&gt;&lt;div style=&quot;line-height: 19px;&quot;&gt;65 עד 74 ALMOST GOOD&lt;/div&gt;&lt;div style=&quot;line-height: 19px;&quot;&gt;75 עד 84 GOOD&lt;/div&gt;&lt;div style=&quot;line-height: 19px;&quot;&gt;85 עד 94 VERY GOOD&lt;/div&gt;&lt;div style=&quot;line-height: 19px;&quot;&gt;95 ומעלה EXCELLENT&lt;/div&gt;&lt;/div&gt;&lt;/div&gt;&lt;/div&gt;&lt;/div&gt;" style="shape=document;whiteSpace=wrap;html=1;boundedLbl=1;" parent="1" vertex="1">
          <mxGeometry x="495" y="250" width="170" height="210" as="geometry" />
        </mxCell>
        <mxCell id="UckIdEW40wDfMgWGuQWz-8" value="" style="edgeStyle=orthogonalEdgeStyle;rounded=0;orthogonalLoop=1;jettySize=auto;html=1;" edge="1" parent="1" source="NqOy1r5sEnn0rG29aLDs-30">
          <mxGeometry relative="1" as="geometry">
            <mxPoint x="307.5" y="280" as="targetPoint" />
          </mxGeometry>
        </mxCell>
        <mxCell id="NqOy1r5sEnn0rG29aLDs-30" value="number" style="shape=card;whiteSpace=wrap;html=1;" parent="1" vertex="1">
          <mxGeometry x="267.5" y="160" width="80" height="80" as="geometry" />
        </mxCell>
        <mxCell id="UckIdEW40wDfMgWGuQWz-16" value="" style="edgeStyle=orthogonalEdgeStyle;rounded=0;orthogonalLoop=1;jettySize=auto;html=1;" edge="1" parent="1" source="NqOy1r5sEnn0rG29aLDs-31">
          <mxGeometry relative="1" as="geometry">
            <mxPoint x="307.5" y="710" as="targetPoint" />
          </mxGeometry>
        </mxCell>
        <mxCell id="NqOy1r5sEnn0rG29aLDs-31" value="&lt;div style=&quot;color: rgb(204, 204, 204); background-color: rgb(31, 31, 31); font-family: Consolas, &amp;quot;Courier New&amp;quot;, monospace; font-size: 14px; line-height: 19px;&quot;&gt;&lt;div style=&quot;line-height: 19px;&quot;&gt;Please enter a Grades (between 0 to 120)&lt;/div&gt;&lt;/div&gt;" style="shape=document;whiteSpace=wrap;html=1;boundedLbl=1;" parent="1" vertex="1">
          <mxGeometry x="221.25" y="590" width="172.5" height="70" as="geometry" />
        </mxCell>
        <mxCell id="UckIdEW40wDfMgWGuQWz-3" value="" style="edgeStyle=orthogonalEdgeStyle;rounded=0;orthogonalLoop=1;jettySize=auto;html=1;" edge="1" parent="1" target="5qmP-6OTH-ESlq7DOyJe-22">
          <mxGeometry relative="1" as="geometry">
            <mxPoint x="395" y="355" as="sourcePoint" />
          </mxGeometry>
        </mxCell>
        <mxCell id="UckIdEW40wDfMgWGuQWz-12" value="" style="edgeStyle=orthogonalEdgeStyle;rounded=0;orthogonalLoop=1;jettySize=auto;html=1;" edge="1" parent="1" source="UckIdEW40wDfMgWGuQWz-10" target="UckIdEW40wDfMgWGuQWz-11">
          <mxGeometry relative="1" as="geometry" />
        </mxCell>
        <mxCell id="UckIdEW40wDfMgWGuQWz-10" value="&lt;div style=&quot;color: rgb(204, 204, 204); background-color: rgb(31, 31, 31); font-family: Consolas, &amp;quot;Courier New&amp;quot;, monospace; font-size: 14px; line-height: 19px;&quot;&gt;(&lt;span style=&quot;color: #9cdcfe;&quot;&gt;number&lt;/span&gt;&lt;span style=&quot;color: #d4d4d4;&quot;&gt; &amp;lt; &lt;/span&gt;&lt;span style=&quot;color: #b5cea8;&quot;&gt;0&lt;/span&gt;&lt;span style=&quot;color: #d4d4d4;&quot;&gt; || &lt;/span&gt;&lt;span style=&quot;color: #9cdcfe;&quot;&gt;number&lt;/span&gt;&lt;span style=&quot;color: #d4d4d4;&quot;&gt; &amp;gt; &lt;/span&gt;&lt;span style=&quot;color: #b5cea8;&quot;&gt;120&lt;/span&gt;&lt;span style=&quot;color: #d4d4d4;&quot;&gt;)&lt;/span&gt;&lt;/div&gt;" style="ellipse;whiteSpace=wrap;html=1;aspect=fixed;" vertex="1" parent="1">
          <mxGeometry x="227.5" y="270" width="160" height="160" as="geometry" />
        </mxCell>
        <mxCell id="UckIdEW40wDfMgWGuQWz-13" value="" style="edgeStyle=orthogonalEdgeStyle;rounded=0;orthogonalLoop=1;jettySize=auto;html=1;" edge="1" parent="1" source="UckIdEW40wDfMgWGuQWz-11" target="NqOy1r5sEnn0rG29aLDs-31">
          <mxGeometry relative="1" as="geometry" />
        </mxCell>
        <mxCell id="UckIdEW40wDfMgWGuQWz-11" value="number" style="shape=card;whiteSpace=wrap;html=1;" vertex="1" parent="1">
          <mxGeometry x="267.5" y="460" width="80" height="80" as="geometry" />
        </mxCell>
        <mxCell id="UckIdEW40wDfMgWGuQWz-14" value="" style="shape=link;html=1;rounded=0;" edge="1" parent="1">
          <mxGeometry width="100" relative="1" as="geometry">
            <mxPoint x="307.5" y="710" as="sourcePoint" />
            <mxPoint x="357.5" y="710" as="targetPoint" />
          </mxGeometry>
        </mxCell>
        <mxCell id="UckIdEW40wDfMgWGuQWz-17" value="" style="shape=link;html=1;rounded=0;" edge="1" parent="1">
          <mxGeometry width="100" relative="1" as="geometry">
            <mxPoint x="257.5" y="710" as="sourcePoint" />
            <mxPoint x="307.5" y="710" as="targetPoint" />
          </mxGeometry>
        </mxCell>
        <mxCell id="UckIdEW40wDfMgWGuQWz-18" value="הציון בין 0-120?" style="text;html=1;strokeColor=none;fillColor=none;align=center;verticalAlign=middle;whiteSpace=wrap;rounded=0;" vertex="1" parent="1">
          <mxGeometry x="257.5" y="290" width="100" height="40" as="geometry" />
        </mxCell>
        <mxCell id="UckIdEW40wDfMgWGuQWz-19" value="קלוט שוב" style="text;html=1;strokeColor=none;fillColor=none;align=center;verticalAlign=middle;whiteSpace=wrap;rounded=0;" vertex="1" parent="1">
          <mxGeometry x="190" y="490" width="100" height="40" as="geometry" />
        </mxCell>
        <mxCell id="UckIdEW40wDfMgWGuQWz-20" value="לא" style="text;html=1;strokeColor=none;fillColor=none;align=center;verticalAlign=middle;whiteSpace=wrap;rounded=0;" vertex="1" parent="1">
          <mxGeometry x="267.5" y="430" width="42.5" height="30" as="geometry" />
        </mxCell>
        <mxCell id="UckIdEW40wDfMgWGuQWz-21" value="הציון חייב להיות בין 0 ל 120" style="text;html=1;strokeColor=none;fillColor=none;align=center;verticalAlign=middle;whiteSpace=wrap;rounded=0;" vertex="1" parent="1">
          <mxGeometry x="110" y="600" width="100" height="40" as="geometry" />
        </mxCell>
      </root>
    </mxGraphModel>
  </diagram>
</mxfile>
